# xmcd CD database file
#
# Track frame offsets:
#	150
#	18936
#	34421
#	52417
#	73503
#	91745
#	110602
#	137351
#	160520
#	177635
#	191516
#
# Disc length: 2738 seconds
#
# Revision: 0
# Processed by: cddbd v1.5.1PL2 Copyright (c) Steve Scherf et al.
# Submitted via: CDex 1.51
#
DISCID=920ab00b
DTITLE=Kamelia Todorova - Feels like
DYEAR=2006
DGENRE=Jazz
TTITLE0=Call Me
TTITLE1=I Heard It Through the Grapevine
TTITLE2=Do Right
TTITLE3=Come Rain or Come Shine
TTITLE4=You and I
TTITLE5=I've Got the Music In Me
TTITLE6=Feel Like Makin Love
TTITLE7=Maybe Your Baby
TTITLE8=Spirit In the Dark
TTITLE9=You - Me
TTITLE10=Gee Baby
EXTD=YEAR: 2006
EXTT0=
EXTT1=
EXTT2=
EXTT3=
EXTT4=
EXTT5=
EXTT6=
EXTT7=
EXTT8=
EXTT9=
EXTT10=
PLAYORDER=
